<?xml version="1.0" encoding="utf-8"?>
<!-- Generator: Adobe Illustrator 16.0.0, SVG Export Plug-In . SVG Version: 6.00 Build 0)  -->
<!DOCTYPE svg PUBLIC "-//W3C//DTD SVG 1.1//EN" "http://www.w3.org/Graphics/SVG/1.1/DTD/svg11.dtd">
<svg version="1.1" id="Layer_1" xmlns="http://www.w3.org/2000/svg" xmlns:xlink="http://www.w3.org/1999/xlink" x="0px" y="0px"
	 width="654px" height="208.1px" viewBox="0 0 654 208.1" style="enable-background:new 0 0 654 208.1;" xml:space="preserve">
<style type="text/css">
<![CDATA[
	.st0{fill:url(#SVGID_12_);stroke:#FFFFFF;stroke-width:0;stroke-linecap:round;stroke-linejoin:round;}
	.st1{fill:url(#SVGID_4_);stroke:#FFFFFF;stroke-width:0;stroke-linecap:round;stroke-linejoin:round;}
	.st2{fill:url(#SVGID_10_);stroke:#FFFFFF;stroke-width:0;stroke-linecap:round;stroke-linejoin:round;}
	.st3{fill:url(#SVGID_17_);stroke:#FFFFFF;stroke-width:0;stroke-linecap:round;stroke-linejoin:round;}
	.st4{fill:url(#SVGID_9_);stroke:#FFFFFF;stroke-width:0;stroke-linecap:round;stroke-linejoin:round;}
	.st5{fill:url(#SVGID_15_);stroke:#FFFFFF;stroke-width:0;stroke-linecap:round;stroke-linejoin:round;}
	.st6{fill:url(#SVGID_7_);stroke:#FFFFFF;stroke-width:0;stroke-linecap:round;stroke-linejoin:round;}
	.st7{fill:url(#SVGID_1_);}
	.st8{fill:url(#SVGID_2_);}
	.st9{fill:url(#SVGID_3_);}
	.st10{fill:url(#SVGID_13_);stroke:#FFFFFF;stroke-width:0;stroke-linecap:round;stroke-linejoin:round;}
	.st11{fill:url(#SVGID_5_);stroke:#FFFFFF;stroke-width:0;stroke-linecap:round;stroke-linejoin:round;}
	.st12{fill:url(#SVGID_11_);stroke:#FFFFFF;stroke-width:0;stroke-linecap:round;stroke-linejoin:round;}
	.st13{fill:url(#SVGID_18_);stroke:#FFFFFF;stroke-width:0;stroke-linecap:round;stroke-linejoin:round;}
	.st14{fill:#010101;}
	.st15{fill:url(#SVGID_16_);stroke:#FFFFFF;stroke-width:0;stroke-linecap:round;stroke-linejoin:round;}
	.st16{fill:url(#SVGID_8_);stroke:#FFFFFF;stroke-width:0;stroke-linecap:round;stroke-linejoin:round;}
	.st17{fill:url(#SVGID_14_);stroke:#FFFFFF;stroke-width:0;stroke-linecap:round;stroke-linejoin:round;}
	.st18{fill:url(#SVGID_6_);stroke:#FFFFFF;stroke-width:0;stroke-linecap:round;stroke-linejoin:round;}
]]>
</style>
<g>
	<g>
		<path class="st14" d="M55.2,161.7v45h-17l-20.1-30.1v19.9h6.1v10.2H0v-10.2h4.7v-34.8H0.1v-10.2h22.6l19.3,29v-18.8h-5.4v-10.2
			h23.8v10.2H55.2z"/>
		<path class="st14" d="M94.5,206.7v-10.3h7.5l-1.7-5.4H84.2l-1.7,5.4h6.2v10.3H63.6v-10.3H69l10.7-34.6h-3.2v-10.2h30.3l14,44.8
			h5.5v10.3H94.5z M97.5,181.5l-5.2-17l-5.1,17H97.5z"/>
		<path class="st14" d="M181.5,172h-11.6v-10.1h-6.6v34.2h6.6v10.5h-29.4v-10.5h6.5v-34.2h-6.8V172h-11.6v-20.5h52.9V172z"/>
		<path class="st14" d="M209,151.5v10.2h-4.3v17c0,12.7,2.8,15.4,7.9,15.4c4.8,0,8-1.9,8-15.5v-16.7h-4.3v-10.4h23.4v10.2h-4.3v19.2
			c0,18.7-7.8,27.1-22.6,27.1c-15.9-0.5-24.5-8.8-24.5-26.7v-19.5h-4.4v-10.3H209z"/>
		<path class="st14" d="M268.5,151.5c18.3,0,21.9,7.3,21.9,16.3c0,6.2-4.9,10.5-11.4,11.4c5.4,0.8,10.3,5.5,10.3,11.2
			c0,3.4,0.5,5.4,1.9,5.4c1.2,0,1.8-0.9,1.8-2.5v-2.6h5.3v4.3c0,6.6-2.8,12.6-11.5,12.6c-10.3,0-15.3-5.4-15.3-14.7
			c0-7.2-0.9-8.9-7.9-8.9v12.2h4.8v10.4h-25.5v-10.4h4.4v-34.4h-4.4v-10.3H268.5z M263.5,175.2h3.6c4.6,0,7.6-2.2,7.6-6.4
			c0-4.7-2.6-7-7.2-7h-3.9V175.2z"/>
		<path class="st14" d="M331.1,206.7v-10.3h7.5L337,191h-16.2l-1.7,5.4h6.2v10.3h-25.1v-10.3h5.4l10.7-34.6H313v-10.2h30.3l14,44.8
			h5.5v10.3H331.1z M334,181.5l-5.2-17l-5.1,17H334z"/>
		<path class="st14" d="M390.9,151.5v10.4h-4.2v34.2h10.2v-10h13.3v20.5h-44.2v-10.5h4.3v-34.2h-4.3v-10.4H390.9z"/>
		<path class="st14" d="M459.4,151.5c18.3,0,21.9,7.3,21.9,16.3c0,6.2-4.9,10.5-11.4,11.4c5.4,0.8,10.3,5.5,10.3,11.2
			c0,3.4,0.5,5.4,1.9,5.4c1.2,0,1.8-0.9,1.8-2.5v-2.6h5.3v4.3c0,6.6-2.8,12.6-11.5,12.6c-10.3,0-15.3-5.4-15.3-14.7
			c0-7.2-0.9-8.9-7.9-8.9v12.2h4.8v10.4h-25.5v-10.4h4.4v-34.4h-4.4v-10.3H459.4z M454.5,175.2h3.6c4.6,0,7.6-2.2,7.6-6.4
			c0-4.7-2.6-7-7.2-7h-3.9V175.2z"/>
		<path class="st14" d="M491.2,178.8c0-17,11.4-28.8,27.7-28.8c19.3,0,28.3,11.6,28.3,29.4c0,17.8-9.9,28.7-27.8,28.7
			C502.9,208.1,491.2,198.5,491.2,178.8z M527.5,179.4c0-9.5-2.6-17.2-8.7-17.2c-4.8-0.1-8.1,6.9-8.1,16.6c0,10.3,3.7,16.9,8.8,16.9
			C524.4,195.7,527.5,189.2,527.5,179.4z"/>
		<path class="st14" d="M550.4,186.8H565c0,6.6,6.6,7.7,9.9,7.9c2.8,0,6.7-0.6,6.7-3.9c0-6.2-30.3-3.6-30.3-23.7
			c0-11.7,11-17,18.8-17c6.6,0,13.3,2.1,16.5,8l0.8-6.6H601v19.8h-14.3c0-5.8-4.6-9.2-10.1-9.2c-2.3,0-5.4,1.4-5.4,4.2
			c0,8.1,31.2,6.2,31.2,24.8c0,12.3-11.5,16.7-20.9,16.7c-8,0-13.5-3.7-16.5-7.3l-0.9,6.1h-13.8V186.8z"/>
		<path class="st14" d="M654,151.5V169h-13.7v-7h-12.6v10.9h15v10.5h-15v12.9h12.6v-7.3H654v17.8h-47.6v-10.5h5v-34.2h-5v-10.4H654z
			"/>
	</g>
	<g>
		<linearGradient id="SVGID_1_" gradientUnits="userSpaceOnUse" x1="327.4009" y1="25.6802" x2="327.4009" y2="0">
			<stop  offset="1.075270e-002" style="stop-color:#5F260D"/>
			<stop  offset="1.635857e-002" style="stop-color:#61270D"/>
			<stop  offset="9.833632e-002" style="stop-color:#772A16"/>
			<stop  offset="0.1846" style="stop-color:#8A2B1C"/>
			<stop  offset="0.2759" style="stop-color:#982A1F"/>
			<stop  offset="0.3757" style="stop-color:#A02821"/>
			<stop  offset="0.5" style="stop-color:#A32822"/>
			<stop  offset="0.6585" style="stop-color:#A72822"/>
			<stop  offset="0.7858" style="stop-color:#B22923"/>
			<stop  offset="0.9019" style="stop-color:#C72A24"/>
			<stop  offset="1" style="stop-color:#E42B25"/>
		</linearGradient>
		<path class="st7" d="M337.9,18.3c-0.5-0.8-1-1.7-1.5-2.5c-1.1-1.9-2.2-3.8-3.3-5.7c-1.2-2-2.3-4.1-3.5-6.1
			c-0.7-1.2-1.4-2.5-2.1-3.7c0-0.1-0.1-0.2-0.1-0.2c-0.5,0.8-1,1.7-1.5,2.5c-1.1,1.9-2.2,3.8-3.3,5.7c-1.2,2-2.3,4.1-3.5,6.1
			c-0.7,1.2-1.4,2.5-2.1,3.7c0,0.1-0.1,0.2-0.1,0.2c0,0,0.2,0.1,0.2,0.1c0.6,0.4,1.1,0.8,1.7,1.2c1.9,1.3,3.8,2.7,5.7,4
			c0.7,0.5,1.5,1,2.2,1.6c0.2,0.1,0.4,0.3,0.6,0.4c0.1,0,0.1,0.1,0.1,0c1.3-0.9,2.6-1.9,3.9-2.8c1.8-1.3,3.6-2.6,5.5-3.8
			C337.2,18.8,337.6,18.5,337.9,18.3z"/>
		<linearGradient id="SVGID_2_" gradientUnits="userSpaceOnUse" x1="327.3687" y1="74.9717" x2="327.3687" y2="14.2817">
			<stop  offset="1.075270e-002" style="stop-color:#5F260D"/>
			<stop  offset="1.635857e-002" style="stop-color:#61270D"/>
			<stop  offset="9.833632e-002" style="stop-color:#772A16"/>
			<stop  offset="0.1846" style="stop-color:#8A2B1C"/>
			<stop  offset="0.2759" style="stop-color:#982A1F"/>
			<stop  offset="0.3757" style="stop-color:#A02821"/>
			<stop  offset="0.5" style="stop-color:#A32822"/>
			<stop  offset="0.6585" style="stop-color:#A72822"/>
			<stop  offset="0.7858" style="stop-color:#B22923"/>
			<stop  offset="0.9019" style="stop-color:#C72A24"/>
			<stop  offset="1" style="stop-color:#E42B25"/>
		</linearGradient>
		<path class="st8" d="M305.5,42.5c3.3,3.5,6.4,7.1,9.3,10.9c2.8,3.6,5.3,7.4,7.5,11.4c1.8,3.3,3.4,6.7,4.7,10.2
			c1.4-4,3.3-7.8,5.4-11.4c2.3-4,4.9-7.8,7.7-11.4c2.9-3.7,6.1-7.3,9.4-10.7c1.7-1.7,3.4-3.5,5.1-5.2c0.1-0.1,0.2-0.2,0.3-0.3
			c0,0,0.2-0.1,0.2-0.2c0,0,0,0,0,0c0,0,0-0.1,0-0.1c0-0.2,0-0.3,0-0.5c-0.1-1.6-0.3-3.2-0.4-4.9c-0.2-2.4-0.4-4.8-0.7-7.1
			c-0.2-2.1-0.4-4.2-0.6-6.4c-0.1-0.9-0.2-1.7-0.2-2.6c-1,0.7-2,1.4-3,2.1c-1.9,1.4-3.9,2.7-5.8,4.1c-1.3,0.9-2.5,1.8-3.8,2.7
			c-0.8,0.6-1.6,1.1-2.4,1.7c-1.7,1.2-3.4,2.4-5.1,3.6c-1.6,1.2-3.3,2.3-4.9,3.5c-0.2,0.1-0.3,0.2-0.5,0.4c-0.1,0-0.1,0.1-0.1,0
			c-0.4-0.3-0.9-0.6-1.3-0.9c-1.8-1.3-3.7-2.6-5.5-3.9c-1.5-1-2.9-2.1-4.4-3.1c-0.7-0.5-1.5-1.1-2.3-1.6c-1.5-1.1-3.1-2.2-4.6-3.3
			c-1.9-1.3-3.7-2.6-5.6-4c-0.6-0.5-1.3-0.9-1.9-1.4c-0.1,0.9-0.2,1.8-0.2,2.8c-0.2,2.1-0.4,4.3-0.6,6.4c-0.2,2.4-0.4,4.8-0.7,7.2
			c-0.2,1.7-0.3,3.4-0.5,5.1c0,0.3-0.1,0.6-0.1,0.9c0,0,0.1,0.1,0.1,0.1c0.2,0.2,0.4,0.4,0.7,0.7c0.4,0.4,0.9,0.9,1.3,1.3
			c0.9,0.9,1.7,1.7,2.5,2.6C304.7,41.7,305.1,42.1,305.5,42.5C308.1,45.2,305.1,42.1,305.5,42.5z"/>
		<linearGradient id="SVGID_3_" gradientUnits="userSpaceOnUse" x1="326.9858" y1="122.4199" x2="326.9858" y2="32.5723">
			<stop  offset="1.075270e-002" style="stop-color:#5F260D"/>
			<stop  offset="1.635857e-002" style="stop-color:#61270D"/>
			<stop  offset="9.833632e-002" style="stop-color:#772A16"/>
			<stop  offset="0.1846" style="stop-color:#8A2B1C"/>
			<stop  offset="0.2759" style="stop-color:#982A1F"/>
			<stop  offset="0.3757" style="stop-color:#A02821"/>
			<stop  offset="0.5" style="stop-color:#A32822"/>
			<stop  offset="0.6585" style="stop-color:#A72822"/>
			<stop  offset="0.7858" style="stop-color:#B22923"/>
			<stop  offset="0.9019" style="stop-color:#C72A24"/>
			<stop  offset="1" style="stop-color:#E42B25"/>
		</linearGradient>
		<path class="st9" d="M379.8,94.9c0-4.3-1-8.5-2.4-12.6c-1.5-4.3-3.4-8.5-5.2-12.7c-1.8-4.2-3.7-8.4-5.1-12.7
			c-1.3-4.1-2.2-8.4-2-12.7c0.2-4.1,1.3-8.1,3.4-11.7c-3.5,3.3-7,6.6-10.5,10c-3.5,3.4-6.9,6.8-10.1,10.4c-2.9,3.1-5.6,6.4-8.1,9.8
			c-2.5,3.3-4.7,6.8-6.7,10.4c-2,3.6-3.7,7.5-5,11.4c-0.4,1.2-0.8,2.4-1.1,3.7c-1.1-4.2-2.7-8.3-4.6-12.2c-1.9-3.8-4-7.4-6.5-10.8
			c-2.5-3.6-5.2-7-8.1-10.2c-3.2-3.6-6.5-7.1-10-10.4c-3.4-3.4-7-6.7-10.5-10c-0.6-0.6-1.3-1.2-1.9-1.8c1.8,3,2.9,6.4,3.3,9.9
			c0.3,3.4,0,6.9-0.8,10.3c-0.8,3.6-2,7-3.3,10.4c-1.4,3.5-2.9,6.9-4.4,10.3c-1.4,3.3-2.8,6.6-3.9,10c-1.1,3.2-1.9,6.6-2,10
			c-0.2,3.1,0.2,6.2,1.2,9.1c0.9,2.7,2.4,5.1,4.2,7.2c1.9,2.2,4.2,3.9,6.7,5.4c2.7,1.6,5.6,2.7,8.6,3.6c3.7,1.1,7.6,1.6,11.4,2.1
			c4.5,0.6,9.1,1.1,13.7,1.3c4.6,0.3,9.2,0.4,13.9,0.3c4.4-0.1,8.9-0.4,13.3-1c3.7-0.5,7.3-1.2,10.8-2.2c3.2-0.9,6.4-2.2,9.4-3.8
			c2.7-1.5,5.2-3.4,7.2-5.7c2-2.3,3.5-5,4.3-7.9C379.5,99.5,379.8,97.2,379.8,94.9C379.8,94.7,379.8,94.9,379.8,94.9z"/>
		<linearGradient id="SVGID_4_" gradientUnits="userSpaceOnUse" x1="378.6279" y1="85.2686" x2="378.6279" y2="85.187">
			<stop  offset="1.075270e-002" style="stop-color:#5F260D"/>
			<stop  offset="1.635857e-002" style="stop-color:#61270D"/>
			<stop  offset="9.833632e-002" style="stop-color:#772A16"/>
			<stop  offset="0.1846" style="stop-color:#8A2B1C"/>
			<stop  offset="0.2759" style="stop-color:#982A1F"/>
			<stop  offset="0.3757" style="stop-color:#A02821"/>
			<stop  offset="0.5" style="stop-color:#A32822"/>
			<stop  offset="0.6585" style="stop-color:#A72822"/>
			<stop  offset="0.7858" style="stop-color:#B22923"/>
			<stop  offset="0.9019" style="stop-color:#C72A24"/>
			<stop  offset="1" style="stop-color:#E42B25"/>
		</linearGradient>
		<path class="st1" d="M378.6,85.2C378.6,85.2,378.6,85.2,378.6,85.2"/>
		<linearGradient id="SVGID_5_" gradientUnits="userSpaceOnUse" x1="378.5068" y1="84.8018" x2="378.5068" y2="84.7378">
			<stop  offset="1.075270e-002" style="stop-color:#5F260D"/>
			<stop  offset="1.635857e-002" style="stop-color:#61270D"/>
			<stop  offset="9.833632e-002" style="stop-color:#772A16"/>
			<stop  offset="0.1846" style="stop-color:#8A2B1C"/>
			<stop  offset="0.2759" style="stop-color:#982A1F"/>
			<stop  offset="0.3757" style="stop-color:#A02821"/>
			<stop  offset="0.5" style="stop-color:#A32822"/>
			<stop  offset="0.6585" style="stop-color:#A72822"/>
			<stop  offset="0.7858" style="stop-color:#B22923"/>
			<stop  offset="0.9019" style="stop-color:#C72A24"/>
			<stop  offset="1" style="stop-color:#E42B25"/>
		</linearGradient>
		<path class="st11" d="M378.5,84.7C378.5,84.8,378.5,84.8,378.5,84.7"/>
		<linearGradient id="SVGID_6_" gradientUnits="userSpaceOnUse" x1="379.623" y1="97.0117" x2="379.623" y2="96.9736">
			<stop  offset="1.075270e-002" style="stop-color:#5F260D"/>
			<stop  offset="1.635857e-002" style="stop-color:#61270D"/>
			<stop  offset="9.833632e-002" style="stop-color:#772A16"/>
			<stop  offset="0.1846" style="stop-color:#8A2B1C"/>
			<stop  offset="0.2759" style="stop-color:#982A1F"/>
			<stop  offset="0.3757" style="stop-color:#A02821"/>
			<stop  offset="0.5" style="stop-color:#A32822"/>
			<stop  offset="0.6585" style="stop-color:#A72822"/>
			<stop  offset="0.7858" style="stop-color:#B22923"/>
			<stop  offset="0.9019" style="stop-color:#C72A24"/>
			<stop  offset="1" style="stop-color:#E42B25"/>
		</linearGradient>
		<path class="st18" d="M379.6,97C379.6,97,379.6,97,379.6,97"/>
		<linearGradient id="SVGID_7_" gradientUnits="userSpaceOnUse" x1="379.7588" y1="92.2798" x2="379.7588" y2="92.1924">
			<stop  offset="1.075270e-002" style="stop-color:#5F260D"/>
			<stop  offset="1.635857e-002" style="stop-color:#61270D"/>
			<stop  offset="9.833632e-002" style="stop-color:#772A16"/>
			<stop  offset="0.1846" style="stop-color:#8A2B1C"/>
			<stop  offset="0.2759" style="stop-color:#982A1F"/>
			<stop  offset="0.3757" style="stop-color:#A02821"/>
			<stop  offset="0.5" style="stop-color:#A32822"/>
			<stop  offset="0.6585" style="stop-color:#A72822"/>
			<stop  offset="0.7858" style="stop-color:#B22923"/>
			<stop  offset="0.9019" style="stop-color:#C72A24"/>
			<stop  offset="1" style="stop-color:#E42B25"/>
		</linearGradient>
		<path class="st6" d="M379.8,92.2C379.8,92.2,379.8,92.3,379.8,92.2"/>
		<linearGradient id="SVGID_8_" gradientUnits="userSpaceOnUse" x1="379.5225" y1="97.749" x2="379.5225" y2="97.7344">
			<stop  offset="1.075270e-002" style="stop-color:#5F260D"/>
			<stop  offset="1.635857e-002" style="stop-color:#61270D"/>
			<stop  offset="9.833632e-002" style="stop-color:#772A16"/>
			<stop  offset="0.1846" style="stop-color:#8A2B1C"/>
			<stop  offset="0.2759" style="stop-color:#982A1F"/>
			<stop  offset="0.3757" style="stop-color:#A02821"/>
			<stop  offset="0.5" style="stop-color:#A32822"/>
			<stop  offset="0.6585" style="stop-color:#A72822"/>
			<stop  offset="0.7858" style="stop-color:#B22923"/>
			<stop  offset="0.9019" style="stop-color:#C72A24"/>
			<stop  offset="1" style="stop-color:#E42B25"/>
		</linearGradient>
		<path class="st16" d="M379.5,97.7C379.5,97.7,379.5,97.7,379.5,97.7"/>
		<linearGradient id="SVGID_9_" gradientUnits="userSpaceOnUse" x1="379.6992" y1="96.2827" x2="379.6992" y2="96.2241">
			<stop  offset="1.075270e-002" style="stop-color:#5F260D"/>
			<stop  offset="1.635857e-002" style="stop-color:#61270D"/>
			<stop  offset="9.833632e-002" style="stop-color:#772A16"/>
			<stop  offset="0.1846" style="stop-color:#8A2B1C"/>
			<stop  offset="0.2759" style="stop-color:#982A1F"/>
			<stop  offset="0.3757" style="stop-color:#A02821"/>
			<stop  offset="0.5" style="stop-color:#A32822"/>
			<stop  offset="0.6585" style="stop-color:#A72822"/>
			<stop  offset="0.7858" style="stop-color:#B22923"/>
			<stop  offset="0.9019" style="stop-color:#C72A24"/>
			<stop  offset="1" style="stop-color:#E42B25"/>
		</linearGradient>
		<path class="st4" d="M379.7,96.2C379.7,96.2,379.7,96.3,379.7,96.2"/>
		<linearGradient id="SVGID_10_" gradientUnits="userSpaceOnUse" x1="379.7578" y1="95.4927" x2="379.7578" y2="95.4429">
			<stop  offset="1.075270e-002" style="stop-color:#5F260D"/>
			<stop  offset="1.635857e-002" style="stop-color:#61270D"/>
			<stop  offset="9.833632e-002" style="stop-color:#772A16"/>
			<stop  offset="0.1846" style="stop-color:#8A2B1C"/>
			<stop  offset="0.2759" style="stop-color:#982A1F"/>
			<stop  offset="0.3757" style="stop-color:#A02821"/>
			<stop  offset="0.5" style="stop-color:#A32822"/>
			<stop  offset="0.6585" style="stop-color:#A72822"/>
			<stop  offset="0.7858" style="stop-color:#B22923"/>
			<stop  offset="0.9019" style="stop-color:#C72A24"/>
			<stop  offset="1" style="stop-color:#E42B25"/>
		</linearGradient>
		<path class="st2" d="M379.8,95.4C379.8,95.5,379.8,95.5,379.8,95.4"/>
		<linearGradient id="SVGID_11_" gradientUnits="userSpaceOnUse" x1="379.8018" y1="93.9185" x2="379.8018" y2="93.8452">
			<stop  offset="1.075270e-002" style="stop-color:#5F260D"/>
			<stop  offset="1.635857e-002" style="stop-color:#61270D"/>
			<stop  offset="9.833632e-002" style="stop-color:#772A16"/>
			<stop  offset="0.1846" style="stop-color:#8A2B1C"/>
			<stop  offset="0.2759" style="stop-color:#982A1F"/>
			<stop  offset="0.3757" style="stop-color:#A02821"/>
			<stop  offset="0.5" style="stop-color:#A32822"/>
			<stop  offset="0.6585" style="stop-color:#A72822"/>
			<stop  offset="0.7858" style="stop-color:#B22923"/>
			<stop  offset="0.9019" style="stop-color:#C72A24"/>
			<stop  offset="1" style="stop-color:#E42B25"/>
		</linearGradient>
		<path class="st12" d="M379.8,93.9C379.8,93.9,379.8,93.9,379.8,93.9"/>
		<linearGradient id="SVGID_12_" gradientUnits="userSpaceOnUse" x1="379.7939" y1="93.166" x2="379.7939" y2="93.0288">
			<stop  offset="1.075270e-002" style="stop-color:#5F260D"/>
			<stop  offset="1.635857e-002" style="stop-color:#61270D"/>
			<stop  offset="9.833632e-002" style="stop-color:#772A16"/>
			<stop  offset="0.1846" style="stop-color:#8A2B1C"/>
			<stop  offset="0.2759" style="stop-color:#982A1F"/>
			<stop  offset="0.3757" style="stop-color:#A02821"/>
			<stop  offset="0.5" style="stop-color:#A32822"/>
			<stop  offset="0.6585" style="stop-color:#A72822"/>
			<stop  offset="0.7858" style="stop-color:#B22923"/>
			<stop  offset="0.9019" style="stop-color:#C72A24"/>
			<stop  offset="1" style="stop-color:#E42B25"/>
		</linearGradient>
		<path class="st0" d="M379.8,93c0,0,0,0.1,0,0.1"/>
		<linearGradient id="SVGID_13_" gradientUnits="userSpaceOnUse" x1="379.4043" y1="98.4692" x2="379.4043" y2="98.4546">
			<stop  offset="1.075270e-002" style="stop-color:#5F260D"/>
			<stop  offset="1.635857e-002" style="stop-color:#61270D"/>
			<stop  offset="9.833632e-002" style="stop-color:#772A16"/>
			<stop  offset="0.1846" style="stop-color:#8A2B1C"/>
			<stop  offset="0.2759" style="stop-color:#982A1F"/>
			<stop  offset="0.3757" style="stop-color:#A02821"/>
			<stop  offset="0.5" style="stop-color:#A32822"/>
			<stop  offset="0.6585" style="stop-color:#A72822"/>
			<stop  offset="0.7858" style="stop-color:#B22923"/>
			<stop  offset="0.9019" style="stop-color:#C72A24"/>
			<stop  offset="1" style="stop-color:#E42B25"/>
		</linearGradient>
		<path class="st10" d="M379.4,98.5C379.4,98.5,379.4,98.5,379.4,98.5"/>
		<linearGradient id="SVGID_14_" gradientUnits="userSpaceOnUse" x1="379.1045" y1="99.8711" x2="379.1045" y2="99.8711">
			<stop  offset="1.075270e-002" style="stop-color:#5F260D"/>
			<stop  offset="1.635857e-002" style="stop-color:#61270D"/>
			<stop  offset="9.833632e-002" style="stop-color:#772A16"/>
			<stop  offset="0.1846" style="stop-color:#8A2B1C"/>
			<stop  offset="0.2759" style="stop-color:#982A1F"/>
			<stop  offset="0.3757" style="stop-color:#A02821"/>
			<stop  offset="0.5" style="stop-color:#A32822"/>
			<stop  offset="0.6585" style="stop-color:#A72822"/>
			<stop  offset="0.7858" style="stop-color:#B22923"/>
			<stop  offset="0.9019" style="stop-color:#C72A24"/>
			<stop  offset="1" style="stop-color:#E42B25"/>
		</linearGradient>
		<line class="st17" x1="379.1" y1="99.9" x2="379.1" y2="99.9"/>
		<linearGradient id="SVGID_15_" gradientUnits="userSpaceOnUse" x1="379.79" y1="94.7549" x2="379.79" y2="94.6587">
			<stop  offset="1.075270e-002" style="stop-color:#5F260D"/>
			<stop  offset="1.635857e-002" style="stop-color:#61270D"/>
			<stop  offset="9.833632e-002" style="stop-color:#772A16"/>
			<stop  offset="0.1846" style="stop-color:#8A2B1C"/>
			<stop  offset="0.2759" style="stop-color:#982A1F"/>
			<stop  offset="0.3757" style="stop-color:#A02821"/>
			<stop  offset="0.5" style="stop-color:#A32822"/>
			<stop  offset="0.6585" style="stop-color:#A72822"/>
			<stop  offset="0.7858" style="stop-color:#B22923"/>
			<stop  offset="0.9019" style="stop-color:#C72A24"/>
			<stop  offset="1" style="stop-color:#E42B25"/>
		</linearGradient>
		<path class="st5" d="M379.8,94.7C379.8,94.7,379.8,94.7,379.8,94.7"/>
		<linearGradient id="SVGID_16_" gradientUnits="userSpaceOnUse" x1="378.1123" y1="83.3906" x2="378.1123" y2="83.3853">
			<stop  offset="1.075270e-002" style="stop-color:#5F260D"/>
			<stop  offset="1.635857e-002" style="stop-color:#61270D"/>
			<stop  offset="9.833632e-002" style="stop-color:#772A16"/>
			<stop  offset="0.1846" style="stop-color:#8A2B1C"/>
			<stop  offset="0.2759" style="stop-color:#982A1F"/>
			<stop  offset="0.3757" style="stop-color:#A02821"/>
			<stop  offset="0.5" style="stop-color:#A32822"/>
			<stop  offset="0.6585" style="stop-color:#A72822"/>
			<stop  offset="0.7858" style="stop-color:#B22923"/>
			<stop  offset="0.9019" style="stop-color:#C72A24"/>
			<stop  offset="1" style="stop-color:#E42B25"/>
		</linearGradient>
		<line class="st15" x1="378.1" y1="83.4" x2="378.1" y2="83.4"/>
		<linearGradient id="SVGID_17_" gradientUnits="userSpaceOnUse" x1="378.3799" y1="84.3325" x2="378.3799" y2="84.2856">
			<stop  offset="1.075270e-002" style="stop-color:#5F260D"/>
			<stop  offset="1.635857e-002" style="stop-color:#61270D"/>
			<stop  offset="9.833632e-002" style="stop-color:#772A16"/>
			<stop  offset="0.1846" style="stop-color:#8A2B1C"/>
			<stop  offset="0.2759" style="stop-color:#982A1F"/>
			<stop  offset="0.3757" style="stop-color:#A02821"/>
			<stop  offset="0.5" style="stop-color:#A32822"/>
			<stop  offset="0.6585" style="stop-color:#A72822"/>
			<stop  offset="0.7858" style="stop-color:#B22923"/>
			<stop  offset="0.9019" style="stop-color:#C72A24"/>
			<stop  offset="1" style="stop-color:#E42B25"/>
		</linearGradient>
		<path class="st3" d="M378.4,84.3C378.4,84.3,378.4,84.3,378.4,84.3"/>
		<linearGradient id="SVGID_18_" gradientUnits="userSpaceOnUse" x1="378.249" y1="83.8687" x2="378.249" y2="83.8369">
			<stop  offset="1.075270e-002" style="stop-color:#5F260D"/>
			<stop  offset="1.635857e-002" style="stop-color:#61270D"/>
			<stop  offset="9.833632e-002" style="stop-color:#772A16"/>
			<stop  offset="0.1846" style="stop-color:#8A2B1C"/>
			<stop  offset="0.2759" style="stop-color:#982A1F"/>
			<stop  offset="0.3757" style="stop-color:#A02821"/>
			<stop  offset="0.5" style="stop-color:#A32822"/>
			<stop  offset="0.6585" style="stop-color:#A72822"/>
			<stop  offset="0.7858" style="stop-color:#B22923"/>
			<stop  offset="0.9019" style="stop-color:#C72A24"/>
			<stop  offset="1" style="stop-color:#E42B25"/>
		</linearGradient>
		<path class="st13" d="M378.2,83.8C378.2,83.8,378.3,83.9,378.2,83.8"/>
	</g>
</g>
</svg>
