<?xml version="1.0" encoding="utf-8"?>
<!-- Generator: Adobe Illustrator 16.0.0, SVG Export Plug-In . SVG Version: 6.00 Build 0)  -->
<!DOCTYPE svg PUBLIC "-//W3C//DTD SVG 1.1//EN" "http://www.w3.org/Graphics/SVG/1.1/DTD/svg11.dtd">
<svg version="1.1" id="Layer_1" xmlns="http://www.w3.org/2000/svg" xmlns:xlink="http://www.w3.org/1999/xlink" x="0px" y="0px"
	 width="191.3px" height="221.7px" viewBox="0 0 191.3 221.7" style="enable-background:new 0 0 191.3 221.7;" xml:space="preserve"
	>
<style type="text/css">
<![CDATA[
	.st0{fill:url(#SVGID_12_);stroke:#FFFFFF;stroke-width:0;stroke-linecap:round;stroke-linejoin:round;}
	.st1{fill:url(#SVGID_4_);stroke:#FFFFFF;stroke-width:0;stroke-linecap:round;stroke-linejoin:round;}
	.st2{fill:url(#SVGID_10_);stroke:#FFFFFF;stroke-width:0;stroke-linecap:round;stroke-linejoin:round;}
	.st3{fill:url(#SVGID_17_);stroke:#FFFFFF;stroke-width:0;stroke-linecap:round;stroke-linejoin:round;}
	.st4{fill:url(#SVGID_9_);stroke:#FFFFFF;stroke-width:0;stroke-linecap:round;stroke-linejoin:round;}
	.st5{fill:url(#SVGID_15_);stroke:#FFFFFF;stroke-width:0;stroke-linecap:round;stroke-linejoin:round;}
	.st6{fill:url(#SVGID_7_);stroke:#FFFFFF;stroke-width:0;stroke-linecap:round;stroke-linejoin:round;}
	.st7{fill:url(#SVGID_1_);}
	.st8{fill:url(#SVGID_2_);}
	.st9{fill:url(#SVGID_3_);}
	.st10{fill:url(#SVGID_13_);stroke:#FFFFFF;stroke-width:0;stroke-linecap:round;stroke-linejoin:round;}
	.st11{fill:url(#SVGID_5_);stroke:#FFFFFF;stroke-width:0;stroke-linecap:round;stroke-linejoin:round;}
	.st12{fill:url(#SVGID_11_);stroke:#FFFFFF;stroke-width:0;stroke-linecap:round;stroke-linejoin:round;}
	.st13{fill:url(#SVGID_18_);stroke:#FFFFFF;stroke-width:0;stroke-linecap:round;stroke-linejoin:round;}
	.st14{fill:url(#SVGID_16_);stroke:#FFFFFF;stroke-width:0;stroke-linecap:round;stroke-linejoin:round;}
	.st15{fill:url(#SVGID_8_);stroke:#FFFFFF;stroke-width:0;stroke-linecap:round;stroke-linejoin:round;}
	.st16{fill:url(#SVGID_14_);stroke:#FFFFFF;stroke-width:0;stroke-linecap:round;stroke-linejoin:round;}
	.st17{fill:url(#SVGID_6_);stroke:#FFFFFF;stroke-width:0;stroke-linecap:round;stroke-linejoin:round;}
]]>
</style>
<g>
	<linearGradient id="SVGID_1_" gradientUnits="userSpaceOnUse" x1="96.3774" y1="46.4966" x2="96.3774" y2="0">
		<stop  offset="1.075270e-002" style="stop-color:#5F260D"/>
		<stop  offset="1.635857e-002" style="stop-color:#61270D"/>
		<stop  offset="9.833632e-002" style="stop-color:#772A16"/>
		<stop  offset="0.1846" style="stop-color:#8A2B1C"/>
		<stop  offset="0.2759" style="stop-color:#982A1F"/>
		<stop  offset="0.3757" style="stop-color:#A02821"/>
		<stop  offset="0.5" style="stop-color:#A32822"/>
		<stop  offset="0.6585" style="stop-color:#A72822"/>
		<stop  offset="0.7858" style="stop-color:#B22923"/>
		<stop  offset="0.9019" style="stop-color:#C72A24"/>
		<stop  offset="1" style="stop-color:#E42B25"/>
	</linearGradient>
	<path class="st7" d="M115.4,33c-0.9-1.5-1.8-3.1-2.6-4.6c-2-3.4-4-6.9-6-10.3c-2.1-3.7-4.2-7.4-6.4-11c-1.3-2.2-2.6-4.5-3.9-6.7
		c-0.1-0.1-0.2-0.3-0.2-0.4c-0.9,1.5-1.8,3-2.6,4.6c-2,3.4-4,6.9-6,10.3c-2.1,3.7-4.2,7.4-6.4,11c-1.3,2.2-2.6,4.5-3.9,6.7
		c-0.1,0.1-0.2,0.3-0.2,0.4c0,0,0.3,0.2,0.4,0.3c1,0.7,2.1,1.5,3.1,2.2c3.4,2.4,6.9,4.9,10.3,7.3c1.3,1,2.7,1.9,4,2.8
		c0.3,0.2,0.7,0.5,1,0.7c0.1,0.1,0.1,0.2,0.3,0.1c2.4-1.7,4.7-3.4,7.1-5c3.3-2.3,6.6-4.6,9.9-7C114.1,34,114.8,33.5,115.4,33z"/>
	<linearGradient id="SVGID_2_" gradientUnits="userSpaceOnUse" x1="96.3188" y1="135.7417" x2="96.3188" y2="25.8589">
		<stop  offset="1.075270e-002" style="stop-color:#5F260D"/>
		<stop  offset="1.635857e-002" style="stop-color:#61270D"/>
		<stop  offset="9.833632e-002" style="stop-color:#772A16"/>
		<stop  offset="0.1846" style="stop-color:#8A2B1C"/>
		<stop  offset="0.2759" style="stop-color:#982A1F"/>
		<stop  offset="0.3757" style="stop-color:#A02821"/>
		<stop  offset="0.5" style="stop-color:#A32822"/>
		<stop  offset="0.6585" style="stop-color:#A72822"/>
		<stop  offset="0.7858" style="stop-color:#B22923"/>
		<stop  offset="0.9019" style="stop-color:#C72A24"/>
		<stop  offset="1" style="stop-color:#E42B25"/>
	</linearGradient>
	<path class="st8" d="M56.8,77c5.9,6.3,11.6,12.8,16.8,19.7c5,6.5,9.6,13.4,13.5,20.6c3.3,5.9,6.1,12.1,8.5,18.5
		c2.6-7.2,5.9-14,9.7-20.6c4.1-7.2,8.9-14.1,14-20.6c5.3-6.8,11-13.2,17-19.4c3-3.2,6.1-6.3,9.2-9.3c0.2-0.2,0.4-0.4,0.6-0.6
		c0,0,0.3-0.2,0.3-0.3c0,0,0,0,0,0c0-0.1,0-0.1,0-0.2c0-0.3-0.1-0.6-0.1-0.9c-0.3-2.9-0.5-5.9-0.8-8.8c-0.4-4.3-0.8-8.6-1.2-12.9
		c-0.4-3.8-0.7-7.7-1.1-11.5c-0.1-1.5-0.3-3.1-0.4-4.6c-1.8,1.3-3.6,2.6-5.5,3.9c-3.5,2.5-7,5-10.5,7.4c-2.3,1.6-4.6,3.2-6.8,4.8
		c-1.5,1-2.9,2.1-4.4,3.1c-3.1,2.2-6.2,4.4-9.3,6.6c-3,2.1-5.9,4.2-8.9,6.3c-0.3,0.2-0.6,0.4-0.9,0.6c-0.1,0.1-0.1,0.1-0.2,0
		c-0.8-0.6-1.6-1.1-2.4-1.7c-3.3-2.3-6.6-4.7-9.9-7c-2.6-1.9-5.3-3.7-7.9-5.6c-1.4-1-2.7-1.9-4.1-2.9c-2.8-2-5.6-4-8.4-5.9
		c-3.4-2.4-6.8-4.8-10.2-7.2c-1.2-0.8-2.3-1.7-3.5-2.5c-0.2,1.7-0.3,3.3-0.5,5c-0.4,3.9-0.7,7.7-1.1,11.6c-0.4,4.3-0.8,8.6-1.2,13
		c-0.3,3.1-0.6,6.2-0.8,9.2c0,0.5-0.1,1.1-0.1,1.6c0,0.1,0.1,0.2,0.2,0.2c0.4,0.4,0.8,0.8,1.2,1.2c0.8,0.8,1.6,1.6,2.3,2.3
		c1.5,1.6,3.1,3.1,4.6,4.7C55.3,75.4,56,76.2,56.8,77C61.4,81.9,55.9,76.1,56.8,77z"/>
	<linearGradient id="SVGID_3_" gradientUnits="userSpaceOnUse" x1="95.6255" y1="221.6519" x2="95.6255" y2="58.9741">
		<stop  offset="1.075270e-002" style="stop-color:#5F260D"/>
		<stop  offset="1.635857e-002" style="stop-color:#61270D"/>
		<stop  offset="9.833632e-002" style="stop-color:#772A16"/>
		<stop  offset="0.1846" style="stop-color:#8A2B1C"/>
		<stop  offset="0.2759" style="stop-color:#982A1F"/>
		<stop  offset="0.3757" style="stop-color:#A02821"/>
		<stop  offset="0.5" style="stop-color:#A32822"/>
		<stop  offset="0.6585" style="stop-color:#A72822"/>
		<stop  offset="0.7858" style="stop-color:#B22923"/>
		<stop  offset="0.9019" style="stop-color:#C72A24"/>
		<stop  offset="1" style="stop-color:#E42B25"/>
	</linearGradient>
	<path class="st9" d="M191.3,171.8c0-7.8-1.8-15.4-4.3-22.8c-2.7-7.8-6.1-15.4-9.4-22.9c-3.3-7.6-6.7-15.1-9.2-23
		c-2.3-7.4-4-15.2-3.7-23c0.3-7.5,2.4-14.7,6.2-21.1c-6.3,6-12.7,12-19,18c-6.3,6.1-12.5,12.3-18.4,18.8
		c-5.2,5.7-10.2,11.6-14.8,17.8c-4.4,6-8.6,12.2-12.1,18.8c-3.6,6.6-6.7,13.5-9,20.6c-0.7,2.2-1.4,4.4-2,6.6
		c-2-7.6-4.9-15.1-8.4-22.2c-3.4-6.8-7.3-13.4-11.7-19.6c-4.5-6.5-9.5-12.6-14.7-18.5c-5.8-6.5-11.8-12.8-18-18.9
		c-6.2-6.1-12.6-12.1-19-18.1c-1.2-1.1-2.3-2.2-3.5-3.3c3.3,5.5,5.3,11.6,5.9,18c0.6,6.2-0.1,12.5-1.4,18.6
		c-1.4,6.4-3.6,12.7-6.1,18.8c-2.5,6.3-5.3,12.4-8,18.6c-2.6,5.9-5.1,11.9-7.1,18c-1.9,5.9-3.4,11.9-3.7,18.1
		c-0.3,5.6,0.3,11.2,2.2,16.5c1.7,4.8,4.3,9.3,7.7,13.1c3.4,3.9,7.6,7.1,12.1,9.7c4.9,2.8,10.1,4.9,15.5,6.5
		c6.7,1.9,13.7,2.9,20.7,3.8c8.2,1.1,16.5,1.9,24.8,2.4c8.3,0.5,16.7,0.8,25.1,0.6c8-0.2,16.1-0.7,24.1-1.8c6.6-0.9,13.2-2.2,19.6-4
		c5.9-1.7,11.6-3.9,17-6.9c4.9-2.7,9.4-6.1,13.1-10.3c3.6-4.2,6.3-9,7.8-14.3C190.8,180.2,191.3,176,191.3,171.8
		C191.3,171.4,191.3,171.8,191.3,171.8z"/>
	<linearGradient id="SVGID_4_" gradientUnits="userSpaceOnUse" x1="189.127" y1="154.3853" x2="189.127" y2="154.2388">
		<stop  offset="1.075270e-002" style="stop-color:#5F260D"/>
		<stop  offset="1.635857e-002" style="stop-color:#61270D"/>
		<stop  offset="9.833632e-002" style="stop-color:#772A16"/>
		<stop  offset="0.1846" style="stop-color:#8A2B1C"/>
		<stop  offset="0.2759" style="stop-color:#982A1F"/>
		<stop  offset="0.3757" style="stop-color:#A02821"/>
		<stop  offset="0.5" style="stop-color:#A32822"/>
		<stop  offset="0.6585" style="stop-color:#A72822"/>
		<stop  offset="0.7858" style="stop-color:#B22923"/>
		<stop  offset="0.9019" style="stop-color:#C72A24"/>
		<stop  offset="1" style="stop-color:#E42B25"/>
	</linearGradient>
	<path class="st1" d="M189.1,154.2c0,0,0,0.1,0,0.1"/>
	<linearGradient id="SVGID_5_" gradientUnits="userSpaceOnUse" x1="188.9082" y1="153.5405" x2="188.9082" y2="153.4263">
		<stop  offset="1.075270e-002" style="stop-color:#5F260D"/>
		<stop  offset="1.635857e-002" style="stop-color:#61270D"/>
		<stop  offset="9.833632e-002" style="stop-color:#772A16"/>
		<stop  offset="0.1846" style="stop-color:#8A2B1C"/>
		<stop  offset="0.2759" style="stop-color:#982A1F"/>
		<stop  offset="0.3757" style="stop-color:#A02821"/>
		<stop  offset="0.5" style="stop-color:#A32822"/>
		<stop  offset="0.6585" style="stop-color:#A72822"/>
		<stop  offset="0.7858" style="stop-color:#B22923"/>
		<stop  offset="0.9019" style="stop-color:#C72A24"/>
		<stop  offset="1" style="stop-color:#E42B25"/>
	</linearGradient>
	<path class="st11" d="M188.9,153.4c0,0,0,0.1,0,0.1"/>
	<linearGradient id="SVGID_6_" gradientUnits="userSpaceOnUse" x1="190.9316" y1="175.6479" x2="190.9316" y2="175.5786">
		<stop  offset="1.075270e-002" style="stop-color:#5F260D"/>
		<stop  offset="1.635857e-002" style="stop-color:#61270D"/>
		<stop  offset="9.833632e-002" style="stop-color:#772A16"/>
		<stop  offset="0.1846" style="stop-color:#8A2B1C"/>
		<stop  offset="0.2759" style="stop-color:#982A1F"/>
		<stop  offset="0.3757" style="stop-color:#A02821"/>
		<stop  offset="0.5" style="stop-color:#A32822"/>
		<stop  offset="0.6585" style="stop-color:#A72822"/>
		<stop  offset="0.7858" style="stop-color:#B22923"/>
		<stop  offset="0.9019" style="stop-color:#C72A24"/>
		<stop  offset="1" style="stop-color:#E42B25"/>
	</linearGradient>
	<path class="st17" d="M190.9,175.6C190.9,175.6,190.9,175.6,190.9,175.6"/>
	<linearGradient id="SVGID_7_" gradientUnits="userSpaceOnUse" x1="191.1748" y1="167.0786" x2="191.1748" y2="166.9224">
		<stop  offset="1.075270e-002" style="stop-color:#5F260D"/>
		<stop  offset="1.635857e-002" style="stop-color:#61270D"/>
		<stop  offset="9.833632e-002" style="stop-color:#772A16"/>
		<stop  offset="0.1846" style="stop-color:#8A2B1C"/>
		<stop  offset="0.2759" style="stop-color:#982A1F"/>
		<stop  offset="0.3757" style="stop-color:#A02821"/>
		<stop  offset="0.5" style="stop-color:#A32822"/>
		<stop  offset="0.6585" style="stop-color:#A72822"/>
		<stop  offset="0.7858" style="stop-color:#B22923"/>
		<stop  offset="0.9019" style="stop-color:#C72A24"/>
		<stop  offset="1" style="stop-color:#E42B25"/>
	</linearGradient>
	<path class="st6" d="M191.2,166.9c0,0.1,0,0.1,0,0.2"/>
	<linearGradient id="SVGID_8_" gradientUnits="userSpaceOnUse" x1="190.748" y1="176.9829" x2="190.748" y2="176.9556">
		<stop  offset="1.075270e-002" style="stop-color:#5F260D"/>
		<stop  offset="1.635857e-002" style="stop-color:#61270D"/>
		<stop  offset="9.833632e-002" style="stop-color:#772A16"/>
		<stop  offset="0.1846" style="stop-color:#8A2B1C"/>
		<stop  offset="0.2759" style="stop-color:#982A1F"/>
		<stop  offset="0.3757" style="stop-color:#A02821"/>
		<stop  offset="0.5" style="stop-color:#A32822"/>
		<stop  offset="0.6585" style="stop-color:#A72822"/>
		<stop  offset="0.7858" style="stop-color:#B22923"/>
		<stop  offset="0.9019" style="stop-color:#C72A24"/>
		<stop  offset="1" style="stop-color:#E42B25"/>
	</linearGradient>
	<path class="st15" d="M190.8,177C190.8,177,190.8,177,190.8,177"/>
	<linearGradient id="SVGID_9_" gradientUnits="userSpaceOnUse" x1="191.0684" y1="174.3286" x2="191.0684" y2="174.2231">
		<stop  offset="1.075270e-002" style="stop-color:#5F260D"/>
		<stop  offset="1.635857e-002" style="stop-color:#61270D"/>
		<stop  offset="9.833632e-002" style="stop-color:#772A16"/>
		<stop  offset="0.1846" style="stop-color:#8A2B1C"/>
		<stop  offset="0.2759" style="stop-color:#982A1F"/>
		<stop  offset="0.3757" style="stop-color:#A02821"/>
		<stop  offset="0.5" style="stop-color:#A32822"/>
		<stop  offset="0.6585" style="stop-color:#A72822"/>
		<stop  offset="0.7858" style="stop-color:#B22923"/>
		<stop  offset="0.9019" style="stop-color:#C72A24"/>
		<stop  offset="1" style="stop-color:#E42B25"/>
	</linearGradient>
	<path class="st4" d="M191.1,174.2c0,0,0,0.1,0,0.1"/>
	<linearGradient id="SVGID_10_" gradientUnits="userSpaceOnUse" x1="191.1729" y1="172.896" x2="191.1729" y2="172.8081">
		<stop  offset="1.075270e-002" style="stop-color:#5F260D"/>
		<stop  offset="1.635857e-002" style="stop-color:#61270D"/>
		<stop  offset="9.833632e-002" style="stop-color:#772A16"/>
		<stop  offset="0.1846" style="stop-color:#8A2B1C"/>
		<stop  offset="0.2759" style="stop-color:#982A1F"/>
		<stop  offset="0.3757" style="stop-color:#A02821"/>
		<stop  offset="0.5" style="stop-color:#A32822"/>
		<stop  offset="0.6585" style="stop-color:#A72822"/>
		<stop  offset="0.7858" style="stop-color:#B22923"/>
		<stop  offset="0.9019" style="stop-color:#C72A24"/>
		<stop  offset="1" style="stop-color:#E42B25"/>
	</linearGradient>
	<path class="st2" d="M191.2,172.8C191.2,172.8,191.2,172.9,191.2,172.8"/>
	<linearGradient id="SVGID_11_" gradientUnits="userSpaceOnUse" x1="191.2539" y1="170.0464" x2="191.2539" y2="169.9155">
		<stop  offset="1.075270e-002" style="stop-color:#5F260D"/>
		<stop  offset="1.635857e-002" style="stop-color:#61270D"/>
		<stop  offset="9.833632e-002" style="stop-color:#772A16"/>
		<stop  offset="0.1846" style="stop-color:#8A2B1C"/>
		<stop  offset="0.2759" style="stop-color:#982A1F"/>
		<stop  offset="0.3757" style="stop-color:#A02821"/>
		<stop  offset="0.5" style="stop-color:#A32822"/>
		<stop  offset="0.6585" style="stop-color:#A72822"/>
		<stop  offset="0.7858" style="stop-color:#B22923"/>
		<stop  offset="0.9019" style="stop-color:#C72A24"/>
		<stop  offset="1" style="stop-color:#E42B25"/>
	</linearGradient>
	<path class="st12" d="M191.3,170c0,0,0-0.1,0-0.1"/>
	<linearGradient id="SVGID_12_" gradientUnits="userSpaceOnUse" x1="191.2383" y1="168.6851" x2="191.2383" y2="168.437">
		<stop  offset="1.075270e-002" style="stop-color:#5F260D"/>
		<stop  offset="1.635857e-002" style="stop-color:#61270D"/>
		<stop  offset="9.833632e-002" style="stop-color:#772A16"/>
		<stop  offset="0.1846" style="stop-color:#8A2B1C"/>
		<stop  offset="0.2759" style="stop-color:#982A1F"/>
		<stop  offset="0.3757" style="stop-color:#A02821"/>
		<stop  offset="0.5" style="stop-color:#A32822"/>
		<stop  offset="0.6585" style="stop-color:#A72822"/>
		<stop  offset="0.7858" style="stop-color:#B22923"/>
		<stop  offset="0.9019" style="stop-color:#C72A24"/>
		<stop  offset="1" style="stop-color:#E42B25"/>
	</linearGradient>
	<path class="st0" d="M191.2,168.4c0,0.1,0,0.2,0,0.2"/>
	<linearGradient id="SVGID_13_" gradientUnits="userSpaceOnUse" x1="190.5352" y1="178.2856" x2="190.5352" y2="178.2612">
		<stop  offset="1.075270e-002" style="stop-color:#5F260D"/>
		<stop  offset="1.635857e-002" style="stop-color:#61270D"/>
		<stop  offset="9.833632e-002" style="stop-color:#772A16"/>
		<stop  offset="0.1846" style="stop-color:#8A2B1C"/>
		<stop  offset="0.2759" style="stop-color:#982A1F"/>
		<stop  offset="0.3757" style="stop-color:#A02821"/>
		<stop  offset="0.5" style="stop-color:#A32822"/>
		<stop  offset="0.6585" style="stop-color:#A72822"/>
		<stop  offset="0.7858" style="stop-color:#B22923"/>
		<stop  offset="0.9019" style="stop-color:#C72A24"/>
		<stop  offset="1" style="stop-color:#E42B25"/>
	</linearGradient>
	<path class="st10" d="M190.5,178.3C190.5,178.3,190.5,178.3,190.5,178.3"/>
	<linearGradient id="SVGID_14_" gradientUnits="userSpaceOnUse" x1="189.9922" y1="180.8257" x2="189.9922" y2="180.8257">
		<stop  offset="1.075270e-002" style="stop-color:#5F260D"/>
		<stop  offset="1.635857e-002" style="stop-color:#61270D"/>
		<stop  offset="9.833632e-002" style="stop-color:#772A16"/>
		<stop  offset="0.1846" style="stop-color:#8A2B1C"/>
		<stop  offset="0.2759" style="stop-color:#982A1F"/>
		<stop  offset="0.3757" style="stop-color:#A02821"/>
		<stop  offset="0.5" style="stop-color:#A32822"/>
		<stop  offset="0.6585" style="stop-color:#A72822"/>
		<stop  offset="0.7858" style="stop-color:#B22923"/>
		<stop  offset="0.9019" style="stop-color:#C72A24"/>
		<stop  offset="1" style="stop-color:#E42B25"/>
	</linearGradient>
	<line class="st16" x1="190" y1="180.8" x2="190" y2="180.8"/>
	<linearGradient id="SVGID_15_" gradientUnits="userSpaceOnUse" x1="191.2324" y1="171.562" x2="191.2324" y2="171.3862">
		<stop  offset="1.075270e-002" style="stop-color:#5F260D"/>
		<stop  offset="1.635857e-002" style="stop-color:#61270D"/>
		<stop  offset="9.833632e-002" style="stop-color:#772A16"/>
		<stop  offset="0.1846" style="stop-color:#8A2B1C"/>
		<stop  offset="0.2759" style="stop-color:#982A1F"/>
		<stop  offset="0.3757" style="stop-color:#A02821"/>
		<stop  offset="0.5" style="stop-color:#A32822"/>
		<stop  offset="0.6585" style="stop-color:#A72822"/>
		<stop  offset="0.7858" style="stop-color:#B22923"/>
		<stop  offset="0.9019" style="stop-color:#C72A24"/>
		<stop  offset="1" style="stop-color:#E42B25"/>
	</linearGradient>
	<path class="st5" d="M191.2,171.4c0,0.1,0,0.1,0,0.2"/>
	<linearGradient id="SVGID_16_" gradientUnits="userSpaceOnUse" x1="188.1934" y1="150.9858" x2="188.1934" y2="150.9751">
		<stop  offset="1.075270e-002" style="stop-color:#5F260D"/>
		<stop  offset="1.635857e-002" style="stop-color:#61270D"/>
		<stop  offset="9.833632e-002" style="stop-color:#772A16"/>
		<stop  offset="0.1846" style="stop-color:#8A2B1C"/>
		<stop  offset="0.2759" style="stop-color:#982A1F"/>
		<stop  offset="0.3757" style="stop-color:#A02821"/>
		<stop  offset="0.5" style="stop-color:#A32822"/>
		<stop  offset="0.6585" style="stop-color:#A72822"/>
		<stop  offset="0.7858" style="stop-color:#B22923"/>
		<stop  offset="0.9019" style="stop-color:#C72A24"/>
		<stop  offset="1" style="stop-color:#E42B25"/>
	</linearGradient>
	<line class="st14" x1="188.2" y1="151" x2="188.2" y2="151"/>
	<linearGradient id="SVGID_17_" gradientUnits="userSpaceOnUse" x1="188.6777" y1="152.6899" x2="188.6777" y2="152.605">
		<stop  offset="1.075270e-002" style="stop-color:#5F260D"/>
		<stop  offset="1.635857e-002" style="stop-color:#61270D"/>
		<stop  offset="9.833632e-002" style="stop-color:#772A16"/>
		<stop  offset="0.1846" style="stop-color:#8A2B1C"/>
		<stop  offset="0.2759" style="stop-color:#982A1F"/>
		<stop  offset="0.3757" style="stop-color:#A02821"/>
		<stop  offset="0.5" style="stop-color:#A32822"/>
		<stop  offset="0.6585" style="stop-color:#A72822"/>
		<stop  offset="0.7858" style="stop-color:#B22923"/>
		<stop  offset="0.9019" style="stop-color:#C72A24"/>
		<stop  offset="1" style="stop-color:#E42B25"/>
	</linearGradient>
	<path class="st3" d="M188.7,152.6C188.7,152.6,188.7,152.7,188.7,152.6"/>
	<linearGradient id="SVGID_18_" gradientUnits="userSpaceOnUse" x1="188.4414" y1="151.8521" x2="188.4414" y2="151.7935">
		<stop  offset="1.075270e-002" style="stop-color:#5F260D"/>
		<stop  offset="1.635857e-002" style="stop-color:#61270D"/>
		<stop  offset="9.833632e-002" style="stop-color:#772A16"/>
		<stop  offset="0.1846" style="stop-color:#8A2B1C"/>
		<stop  offset="0.2759" style="stop-color:#982A1F"/>
		<stop  offset="0.3757" style="stop-color:#A02821"/>
		<stop  offset="0.5" style="stop-color:#A32822"/>
		<stop  offset="0.6585" style="stop-color:#A72822"/>
		<stop  offset="0.7858" style="stop-color:#B22923"/>
		<stop  offset="0.9019" style="stop-color:#C72A24"/>
		<stop  offset="1" style="stop-color:#E42B25"/>
	</linearGradient>
	<path class="st13" d="M188.4,151.8C188.4,151.8,188.4,151.8,188.4,151.8"/>
</g>
</svg>
