<?xml version="1.0" encoding="utf-8"?>
<!-- Generator: Adobe Illustrator 16.0.0, SVG Export Plug-In . SVG Version: 6.00 Build 0)  -->
<!DOCTYPE svg PUBLIC "-//W3C//DTD SVG 1.1//EN" "http://www.w3.org/Graphics/SVG/1.1/DTD/svg11.dtd">
<svg version="1.1" id="Layer_1" xmlns="http://www.w3.org/2000/svg" xmlns:xlink="http://www.w3.org/1999/xlink" x="0px" y="0px"
	 width="695.9px" height="108.9px" viewBox="0 0 695.9 108.9" style="enable-background:new 0 0 695.9 108.9;" xml:space="preserve"
	>
<style type="text/css">
<![CDATA[
	.st0{fill:url(#SVGID_12_);stroke:#FFFFFF;stroke-width:0;stroke-linecap:round;stroke-linejoin:round;}
	.st1{fill:url(#SVGID_4_);stroke:#FFFFFF;stroke-width:0;stroke-linecap:round;stroke-linejoin:round;}
	.st2{fill:url(#SVGID_10_);stroke:#FFFFFF;stroke-width:0;stroke-linecap:round;stroke-linejoin:round;}
	.st3{fill:url(#SVGID_17_);stroke:#FFFFFF;stroke-width:0;stroke-linecap:round;stroke-linejoin:round;}
	.st4{fill:url(#SVGID_9_);stroke:#FFFFFF;stroke-width:0;stroke-linecap:round;stroke-linejoin:round;}
	.st5{fill:url(#SVGID_15_);stroke:#FFFFFF;stroke-width:0;stroke-linecap:round;stroke-linejoin:round;}
	.st6{fill:url(#SVGID_7_);stroke:#FFFFFF;stroke-width:0;stroke-linecap:round;stroke-linejoin:round;}
	.st7{fill:url(#SVGID_1_);}
	.st8{fill:url(#SVGID_2_);}
	.st9{fill:url(#SVGID_3_);}
	.st10{fill:url(#SVGID_13_);stroke:#FFFFFF;stroke-width:0;stroke-linecap:round;stroke-linejoin:round;}
	.st11{fill:url(#SVGID_5_);stroke:#FFFFFF;stroke-width:0;stroke-linecap:round;stroke-linejoin:round;}
	.st12{fill:url(#SVGID_11_);stroke:#FFFFFF;stroke-width:0;stroke-linecap:round;stroke-linejoin:round;}
	.st13{fill:url(#SVGID_18_);stroke:#FFFFFF;stroke-width:0;stroke-linecap:round;stroke-linejoin:round;}
	.st14{fill:#010101;}
	.st15{fill:url(#SVGID_16_);stroke:#FFFFFF;stroke-width:0;stroke-linecap:round;stroke-linejoin:round;}
	.st16{fill:url(#SVGID_8_);stroke:#FFFFFF;stroke-width:0;stroke-linecap:round;stroke-linejoin:round;}
	.st17{fill:url(#SVGID_14_);stroke:#FFFFFF;stroke-width:0;stroke-linecap:round;stroke-linejoin:round;}
	.st18{fill:url(#SVGID_6_);stroke:#FFFFFF;stroke-width:0;stroke-linecap:round;stroke-linejoin:round;}
]]>
</style>
<g>
	<g>
		<path class="st14" d="M163.2,39v40h-15.1l-17.9-26.8V70h5.4V79H114V70h4.1V39h-4.1V30h20.1l17.2,25.8V39h-4.8V30h21.1V39H163.2z"
			/>
		<path class="st14" d="M198.1,79v-9.2h6.7l-1.5-4.8h-14.4l-1.5,4.8h5.5V79h-22.3v-9.2h4.8l9.5-30.8H182V30h27l12.4,39.9h4.9V79
			H198.1z M200.7,56.6l-4.6-15.2l-4.6,15.2H200.7z"/>
		<path class="st14" d="M275.5,48.2h-10.3v-9h-5.9v30.5h5.8V79H239v-9.3h5.8V39.2h-6v9h-10.3V30h47.1V48.2z"/>
		<path class="st14" d="M300,30V39h-3.8v15.2c0,11.3,2.5,13.7,7,13.7c4.3,0,7.1-1.7,7.1-13.8V39.2h-3.8V30h20.8V39h-3.8v17.1
			c0,16.6-7,24.2-20.1,24.2c-14.2-0.4-21.8-7.9-21.8-23.8V39.1h-3.9V30H300z"/>
		<path class="st14" d="M352.9,30c16.3,0,19.4,6.5,19.4,14.5c0,5.5-4.4,9.3-10.2,10.2c4.8,0.7,9.2,4.9,9.2,10c0,3,0.4,4.8,1.7,4.8
			c1.1,0,1.6-0.8,1.6-2.2v-2.3h4.7v3.9c0,5.8-2.5,11.2-10.3,11.2c-9.2,0-13.6-4.8-13.6-13.1c0-6.4-0.8-7.9-7-7.9v10.9h4.3V79h-22.7
			v-9.3h3.9V39.2h-3.9V30H352.9z M348.5,51h3.2c4.1,0,6.7-2,6.7-5.7c0-4.1-2.3-6.3-6.4-6.3h-3.5V51z"/>
		<path class="st14" d="M408.7,79v-9.2h6.7l-1.5-4.8h-14.4l-1.5,4.8h5.5V79h-22.3v-9.2h4.8l9.5-30.8h-2.9V30h27l12.4,39.9h4.9V79
			H408.7z M411.3,56.6l-4.6-15.2l-4.6,15.2H411.3z"/>
		<path class="st14" d="M461.8,30v9.3h-3.7v30.5h9.1v-8.9h11.8V79h-39.3v-9.3h3.9V39.2h-3.9V30H461.8z"/>
		<path class="st14" d="M522.8,30c16.3,0,19.4,6.5,19.4,14.5c0,5.5-4.4,9.3-10.2,10.2c4.8,0.7,9.2,4.9,9.2,10c0,3,0.4,4.8,1.7,4.8
			c1.1,0,1.6-0.8,1.6-2.2v-2.3h4.7v3.9c0,5.8-2.5,11.2-10.3,11.2c-9.2,0-13.6-4.8-13.6-13.1c0-6.4-0.8-7.9-7-7.9v10.9h4.3V79H500
			v-9.3h3.9V39.2H500V30H522.8z M518.4,51h3.2c4.1,0,6.7-2,6.7-5.7c0-4.1-2.3-6.3-6.4-6.3h-3.5V51z"/>
		<path class="st14" d="M551.1,54.3c0-15.2,10.1-25.6,24.6-25.6c17.2,0,25.2,10.3,25.2,26.1c0,15.9-8.8,25.6-24.7,25.6
			C561.5,80.3,551.1,71.8,551.1,54.3z M583.4,54.7c0-8.5-2.3-15.3-7.7-15.3c-4.3-0.1-7.2,6.1-7.2,14.8c0,9.2,3.3,15,7.8,15
			C580.6,69.3,583.4,63.5,583.4,54.7z"/>
		<path class="st14" d="M603.7,61.3h13.1c0,5.9,5.9,6.9,8.8,7c2.5,0,6-0.6,6-3.5c0-5.5-27-3.2-27-21.1c0-10.4,9.8-15.1,16.7-15.1
			c5.9,0,11.9,1.9,14.7,7.2l0.7-5.9h12.1v17.6h-12.7c0-5.2-4.1-8.1-9-8.1c-2,0-4.8,1.3-4.8,3.7c0,7.2,27.8,5.5,27.8,22
			c0,11-10.3,14.9-18.6,14.9c-7.1,0-12-3.3-14.7-6.5L616,79h-12.3V61.3z"/>
		<path class="st14" d="M695.9,30v15.5h-12.1v-6.2h-11.2v9.7h13.3v9.3h-13.3v11.4h11.2v-6.5h12.1V79h-42.3v-9.3h4.4V39.2h-4.4V30
			H695.9z"/>
	</g>
	<g>
		<linearGradient id="SVGID_1_" gradientUnits="userSpaceOnUse" x1="47.3633" y1="22.8506" x2="47.3633" y2="0">
			<stop  offset="1.075270e-002" style="stop-color:#5F260D"/>
			<stop  offset="1.635857e-002" style="stop-color:#61270D"/>
			<stop  offset="9.833632e-002" style="stop-color:#772A16"/>
			<stop  offset="0.1846" style="stop-color:#8A2B1C"/>
			<stop  offset="0.2759" style="stop-color:#982A1F"/>
			<stop  offset="0.3757" style="stop-color:#A02821"/>
			<stop  offset="0.5" style="stop-color:#A32822"/>
			<stop  offset="0.6585" style="stop-color:#A72822"/>
			<stop  offset="0.7858" style="stop-color:#B22923"/>
			<stop  offset="0.9019" style="stop-color:#C72A24"/>
			<stop  offset="1" style="stop-color:#E42B25"/>
		</linearGradient>
		<path class="st7" d="M56.7,16.2c-0.4-0.7-0.9-1.5-1.3-2.2c-1-1.7-2-3.4-2.9-5.1c-1-1.8-2.1-3.6-3.1-5.4c-0.6-1.1-1.3-2.2-1.9-3.3
			c0-0.1-0.1-0.1-0.1-0.2c-0.4,0.7-0.9,1.5-1.3,2.2c-1,1.7-2,3.4-2.9,5.1c-1,1.8-2.1,3.6-3.1,5.4c-0.6,1.1-1.3,2.2-1.9,3.3
			c0,0.1-0.1,0.1-0.1,0.2c0,0,0.2,0.1,0.2,0.1c0.5,0.4,1,0.7,1.5,1.1c1.7,1.2,3.4,2.4,5.1,3.6c0.7,0.5,1.3,0.9,2,1.4
			c0.2,0.1,0.3,0.2,0.5,0.4c0.1,0,0.1,0.1,0.1,0c1.2-0.8,2.3-1.6,3.5-2.5c1.6-1.1,3.2-2.3,4.9-3.4C56.1,16.7,56.4,16.5,56.7,16.2z"
			/>
		<linearGradient id="SVGID_2_" gradientUnits="userSpaceOnUse" x1="47.334" y1="66.709" x2="47.334" y2="12.7075">
			<stop  offset="1.075270e-002" style="stop-color:#5F260D"/>
			<stop  offset="1.635857e-002" style="stop-color:#61270D"/>
			<stop  offset="9.833632e-002" style="stop-color:#772A16"/>
			<stop  offset="0.1846" style="stop-color:#8A2B1C"/>
			<stop  offset="0.2759" style="stop-color:#982A1F"/>
			<stop  offset="0.3757" style="stop-color:#A02821"/>
			<stop  offset="0.5" style="stop-color:#A32822"/>
			<stop  offset="0.6585" style="stop-color:#A72822"/>
			<stop  offset="0.7858" style="stop-color:#B22923"/>
			<stop  offset="0.9019" style="stop-color:#C72A24"/>
			<stop  offset="1" style="stop-color:#E42B25"/>
		</linearGradient>
		<path class="st8" d="M27.9,37.9c2.9,3.1,5.7,6.3,8.3,9.7c2.5,3.2,4.7,6.6,6.7,10.1c1.6,2.9,3,6,4.2,9.1c1.3-3.5,2.9-6.9,4.8-10.1
			c2-3.5,4.4-6.9,6.9-10.1c2.6-3.3,5.4-6.5,8.4-9.5c1.5-1.6,3-3.1,4.5-4.6c0.1-0.1,0.2-0.2,0.3-0.3c0,0,0.1-0.1,0.1-0.1c0,0,0,0,0,0
			c0,0,0-0.1,0-0.1c0-0.2,0-0.3,0-0.5c-0.1-1.4-0.3-2.9-0.4-4.3c-0.2-2.1-0.4-4.2-0.6-6.3c-0.2-1.9-0.3-3.8-0.5-5.7
			c-0.1-0.8-0.1-1.5-0.2-2.3c-0.9,0.6-1.8,1.3-2.7,1.9c-1.7,1.2-3.5,2.4-5.2,3.7c-1.1,0.8-2.2,1.6-3.4,2.4c-0.7,0.5-1.4,1-2.2,1.5
			c-1.5,1.1-3.1,2.2-4.6,3.2c-1.5,1-2.9,2.1-4.4,3.1c-0.1,0.1-0.3,0.2-0.4,0.3c-0.1,0-0.1,0.1-0.1,0c-0.4-0.3-0.8-0.5-1.2-0.8
			c-1.6-1.1-3.3-2.3-4.9-3.4c-1.3-0.9-2.6-1.8-3.9-2.8c-0.7-0.5-1.3-0.9-2-1.4c-1.4-1-2.8-1.9-4.1-2.9c-1.7-1.2-3.3-2.3-5-3.5
			c-0.6-0.4-1.2-0.8-1.7-1.2c-0.1,0.8-0.1,1.6-0.2,2.5c-0.2,1.9-0.3,3.8-0.5,5.7c-0.2,2.1-0.4,4.2-0.6,6.4c-0.1,1.5-0.3,3-0.4,4.5
			c0,0.3,0,0.5-0.1,0.8c0,0,0.1,0.1,0.1,0.1c0.2,0.2,0.4,0.4,0.6,0.6c0.4,0.4,0.8,0.8,1.1,1.1c0.8,0.8,1.5,1.5,2.3,2.3
			C27.2,37.1,27.5,37.5,27.9,37.9C30.2,40.3,27.5,37.4,27.9,37.9z"/>
		<linearGradient id="SVGID_3_" gradientUnits="userSpaceOnUse" x1="46.9941" y1="108.9277" x2="46.9941" y2="28.9829">
			<stop  offset="1.075270e-002" style="stop-color:#5F260D"/>
			<stop  offset="1.635857e-002" style="stop-color:#61270D"/>
			<stop  offset="9.833632e-002" style="stop-color:#772A16"/>
			<stop  offset="0.1846" style="stop-color:#8A2B1C"/>
			<stop  offset="0.2759" style="stop-color:#982A1F"/>
			<stop  offset="0.3757" style="stop-color:#A02821"/>
			<stop  offset="0.5" style="stop-color:#A32822"/>
			<stop  offset="0.6585" style="stop-color:#A72822"/>
			<stop  offset="0.7858" style="stop-color:#B22923"/>
			<stop  offset="0.9019" style="stop-color:#C72A24"/>
			<stop  offset="1" style="stop-color:#E42B25"/>
		</linearGradient>
		<path class="st9" d="M94,84.4c0-3.8-0.9-7.6-2.1-11.2c-1.3-3.8-3-7.6-4.6-11.3c-1.6-3.7-3.3-7.4-4.5-11.3c-1.2-3.6-2-7.5-1.8-11.3
			c0.1-3.7,1.2-7.2,3.1-10.4c-3.1,2.9-6.3,5.9-9.3,8.9c-3.1,3-6.1,6-9,9.2c-2.5,2.8-5,5.7-7.2,8.7c-2.2,2.9-4.2,6-6,9.2
			c-1.8,3.2-3.3,6.6-4.4,10.1c-0.4,1.1-0.7,2.2-1,3.3c-1-3.8-2.4-7.4-4.1-10.9c-1.7-3.4-3.6-6.6-5.7-9.6c-2.2-3.2-4.7-6.2-7.2-9.1
			c-2.8-3.2-5.8-6.3-8.9-9.3c-3.1-3-6.2-6-9.3-8.9c-0.6-0.5-1.1-1.1-1.7-1.6c1.6,2.7,2.6,5.7,2.9,8.8c0.3,3.1,0,6.1-0.7,9.1
			c-0.7,3.2-1.8,6.2-3,9.2c-1.2,3.1-2.6,6.1-3.9,9.1c-1.3,2.9-2.5,5.8-3.5,8.9C0.9,77.1,0.2,80,0,83.1c-0.1,2.7,0.2,5.5,1.1,8.1
			c0.8,2.4,2.1,4.5,3.8,6.4c1.7,1.9,3.7,3.5,6,4.8c2.4,1.4,5,2.4,7.6,3.2c3.3,0.9,6.7,1.4,10.1,1.9c4,0.5,8.1,0.9,12.2,1.2
			c4.1,0.3,8.2,0.4,12.3,0.3c4-0.1,7.9-0.3,11.8-0.9c3.2-0.4,6.5-1.1,9.6-2c2.9-0.8,5.7-1.9,8.3-3.4c2.4-1.3,4.6-3,6.4-5.1
			c1.8-2,3.1-4.4,3.8-7C93.7,88.5,94,86.5,94,84.4C94,84.2,94,84.4,94,84.4z"/>
		<linearGradient id="SVGID_4_" gradientUnits="userSpaceOnUse" x1="92.9438" y1="75.8711" x2="92.9438" y2="75.7988">
			<stop  offset="1.075270e-002" style="stop-color:#5F260D"/>
			<stop  offset="1.635857e-002" style="stop-color:#61270D"/>
			<stop  offset="9.833632e-002" style="stop-color:#772A16"/>
			<stop  offset="0.1846" style="stop-color:#8A2B1C"/>
			<stop  offset="0.2759" style="stop-color:#982A1F"/>
			<stop  offset="0.3757" style="stop-color:#A02821"/>
			<stop  offset="0.5" style="stop-color:#A32822"/>
			<stop  offset="0.6585" style="stop-color:#A72822"/>
			<stop  offset="0.7858" style="stop-color:#B22923"/>
			<stop  offset="0.9019" style="stop-color:#C72A24"/>
			<stop  offset="1" style="stop-color:#E42B25"/>
		</linearGradient>
		<path class="st1" d="M92.9,75.8C92.9,75.8,92.9,75.8,92.9,75.8"/>
		<linearGradient id="SVGID_5_" gradientUnits="userSpaceOnUse" x1="92.8364" y1="75.4551" x2="92.8364" y2="75.3994">
			<stop  offset="1.075270e-002" style="stop-color:#5F260D"/>
			<stop  offset="1.635857e-002" style="stop-color:#61270D"/>
			<stop  offset="9.833632e-002" style="stop-color:#772A16"/>
			<stop  offset="0.1846" style="stop-color:#8A2B1C"/>
			<stop  offset="0.2759" style="stop-color:#982A1F"/>
			<stop  offset="0.3757" style="stop-color:#A02821"/>
			<stop  offset="0.5" style="stop-color:#A32822"/>
			<stop  offset="0.6585" style="stop-color:#A72822"/>
			<stop  offset="0.7858" style="stop-color:#B22923"/>
			<stop  offset="0.9019" style="stop-color:#C72A24"/>
			<stop  offset="1" style="stop-color:#E42B25"/>
		</linearGradient>
		<path class="st11" d="M92.8,75.4C92.8,75.4,92.8,75.4,92.8,75.4"/>
		<linearGradient id="SVGID_6_" gradientUnits="userSpaceOnUse" x1="93.8301" y1="86.3203" x2="93.8301" y2="86.2861">
			<stop  offset="1.075270e-002" style="stop-color:#5F260D"/>
			<stop  offset="1.635857e-002" style="stop-color:#61270D"/>
			<stop  offset="9.833632e-002" style="stop-color:#772A16"/>
			<stop  offset="0.1846" style="stop-color:#8A2B1C"/>
			<stop  offset="0.2759" style="stop-color:#982A1F"/>
			<stop  offset="0.3757" style="stop-color:#A02821"/>
			<stop  offset="0.5" style="stop-color:#A32822"/>
			<stop  offset="0.6585" style="stop-color:#A72822"/>
			<stop  offset="0.7858" style="stop-color:#B22923"/>
			<stop  offset="0.9019" style="stop-color:#C72A24"/>
			<stop  offset="1" style="stop-color:#E42B25"/>
		</linearGradient>
		<path class="st18" d="M93.8,86.3C93.8,86.3,93.8,86.3,93.8,86.3"/>
		<linearGradient id="SVGID_7_" gradientUnits="userSpaceOnUse" x1="93.9502" y1="82.1094" x2="93.9502" y2="82.0313">
			<stop  offset="1.075270e-002" style="stop-color:#5F260D"/>
			<stop  offset="1.635857e-002" style="stop-color:#61270D"/>
			<stop  offset="9.833632e-002" style="stop-color:#772A16"/>
			<stop  offset="0.1846" style="stop-color:#8A2B1C"/>
			<stop  offset="0.2759" style="stop-color:#982A1F"/>
			<stop  offset="0.3757" style="stop-color:#A02821"/>
			<stop  offset="0.5" style="stop-color:#A32822"/>
			<stop  offset="0.6585" style="stop-color:#A72822"/>
			<stop  offset="0.7858" style="stop-color:#B22923"/>
			<stop  offset="0.9019" style="stop-color:#C72A24"/>
			<stop  offset="1" style="stop-color:#E42B25"/>
		</linearGradient>
		<path class="st6" d="M93.9,82C93.9,82.1,94,82.1,93.9,82"/>
		<linearGradient id="SVGID_8_" gradientUnits="userSpaceOnUse" x1="93.7402" y1="86.9756" x2="93.7402" y2="86.9629">
			<stop  offset="1.075270e-002" style="stop-color:#5F260D"/>
			<stop  offset="1.635857e-002" style="stop-color:#61270D"/>
			<stop  offset="9.833632e-002" style="stop-color:#772A16"/>
			<stop  offset="0.1846" style="stop-color:#8A2B1C"/>
			<stop  offset="0.2759" style="stop-color:#982A1F"/>
			<stop  offset="0.3757" style="stop-color:#A02821"/>
			<stop  offset="0.5" style="stop-color:#A32822"/>
			<stop  offset="0.6585" style="stop-color:#A72822"/>
			<stop  offset="0.7858" style="stop-color:#B22923"/>
			<stop  offset="0.9019" style="stop-color:#C72A24"/>
			<stop  offset="1" style="stop-color:#E42B25"/>
		</linearGradient>
		<line class="st16" x1="93.7" y1="87" x2="93.7" y2="87"/>
		<linearGradient id="SVGID_9_" gradientUnits="userSpaceOnUse" x1="93.8975" y1="85.6719" x2="93.8975" y2="85.6191">
			<stop  offset="1.075270e-002" style="stop-color:#5F260D"/>
			<stop  offset="1.635857e-002" style="stop-color:#61270D"/>
			<stop  offset="9.833632e-002" style="stop-color:#772A16"/>
			<stop  offset="0.1846" style="stop-color:#8A2B1C"/>
			<stop  offset="0.2759" style="stop-color:#982A1F"/>
			<stop  offset="0.3757" style="stop-color:#A02821"/>
			<stop  offset="0.5" style="stop-color:#A32822"/>
			<stop  offset="0.6585" style="stop-color:#A72822"/>
			<stop  offset="0.7858" style="stop-color:#B22923"/>
			<stop  offset="0.9019" style="stop-color:#C72A24"/>
			<stop  offset="1" style="stop-color:#E42B25"/>
		</linearGradient>
		<path class="st4" d="M93.9,85.6C93.9,85.6,93.9,85.7,93.9,85.6"/>
		<linearGradient id="SVGID_10_" gradientUnits="userSpaceOnUse" x1="93.9497" y1="84.9678" x2="93.9497" y2="84.9238">
			<stop  offset="1.075270e-002" style="stop-color:#5F260D"/>
			<stop  offset="1.635857e-002" style="stop-color:#61270D"/>
			<stop  offset="9.833632e-002" style="stop-color:#772A16"/>
			<stop  offset="0.1846" style="stop-color:#8A2B1C"/>
			<stop  offset="0.2759" style="stop-color:#982A1F"/>
			<stop  offset="0.3757" style="stop-color:#A02821"/>
			<stop  offset="0.5" style="stop-color:#A32822"/>
			<stop  offset="0.6585" style="stop-color:#A72822"/>
			<stop  offset="0.7858" style="stop-color:#B22923"/>
			<stop  offset="0.9019" style="stop-color:#C72A24"/>
			<stop  offset="1" style="stop-color:#E42B25"/>
		</linearGradient>
		<path class="st2" d="M93.9,84.9C93.9,84.9,93.9,85,93.9,84.9"/>
		<linearGradient id="SVGID_11_" gradientUnits="userSpaceOnUse" x1="93.9893" y1="83.5674" x2="93.9893" y2="83.5029">
			<stop  offset="1.075270e-002" style="stop-color:#5F260D"/>
			<stop  offset="1.635857e-002" style="stop-color:#61270D"/>
			<stop  offset="9.833632e-002" style="stop-color:#772A16"/>
			<stop  offset="0.1846" style="stop-color:#8A2B1C"/>
			<stop  offset="0.2759" style="stop-color:#982A1F"/>
			<stop  offset="0.3757" style="stop-color:#A02821"/>
			<stop  offset="0.5" style="stop-color:#A32822"/>
			<stop  offset="0.6585" style="stop-color:#A72822"/>
			<stop  offset="0.7858" style="stop-color:#B22923"/>
			<stop  offset="0.9019" style="stop-color:#C72A24"/>
			<stop  offset="1" style="stop-color:#E42B25"/>
		</linearGradient>
		<path class="st12" d="M94,83.6C94,83.5,94,83.5,94,83.6"/>
		<linearGradient id="SVGID_12_" gradientUnits="userSpaceOnUse" x1="93.9814" y1="82.8984" x2="93.9814" y2="82.7764">
			<stop  offset="1.075270e-002" style="stop-color:#5F260D"/>
			<stop  offset="1.635857e-002" style="stop-color:#61270D"/>
			<stop  offset="9.833632e-002" style="stop-color:#772A16"/>
			<stop  offset="0.1846" style="stop-color:#8A2B1C"/>
			<stop  offset="0.2759" style="stop-color:#982A1F"/>
			<stop  offset="0.3757" style="stop-color:#A02821"/>
			<stop  offset="0.5" style="stop-color:#A32822"/>
			<stop  offset="0.6585" style="stop-color:#A72822"/>
			<stop  offset="0.7858" style="stop-color:#B22923"/>
			<stop  offset="0.9019" style="stop-color:#C72A24"/>
			<stop  offset="1" style="stop-color:#E42B25"/>
		</linearGradient>
		<path class="st0" d="M94,82.8c0,0,0,0.1,0,0.1"/>
		<linearGradient id="SVGID_13_" gradientUnits="userSpaceOnUse" x1="93.6348" y1="87.6162" x2="93.6348" y2="87.6045">
			<stop  offset="1.075270e-002" style="stop-color:#5F260D"/>
			<stop  offset="1.635857e-002" style="stop-color:#61270D"/>
			<stop  offset="9.833632e-002" style="stop-color:#772A16"/>
			<stop  offset="0.1846" style="stop-color:#8A2B1C"/>
			<stop  offset="0.2759" style="stop-color:#982A1F"/>
			<stop  offset="0.3757" style="stop-color:#A02821"/>
			<stop  offset="0.5" style="stop-color:#A32822"/>
			<stop  offset="0.6585" style="stop-color:#A72822"/>
			<stop  offset="0.7858" style="stop-color:#B22923"/>
			<stop  offset="0.9019" style="stop-color:#C72A24"/>
			<stop  offset="1" style="stop-color:#E42B25"/>
		</linearGradient>
		<line class="st10" x1="93.6" y1="87.6" x2="93.6" y2="87.6"/>
		<linearGradient id="SVGID_14_" gradientUnits="userSpaceOnUse" x1="93.3682" y1="88.8643" x2="93.3682" y2="88.8643">
			<stop  offset="1.075270e-002" style="stop-color:#5F260D"/>
			<stop  offset="1.635857e-002" style="stop-color:#61270D"/>
			<stop  offset="9.833632e-002" style="stop-color:#772A16"/>
			<stop  offset="0.1846" style="stop-color:#8A2B1C"/>
			<stop  offset="0.2759" style="stop-color:#982A1F"/>
			<stop  offset="0.3757" style="stop-color:#A02821"/>
			<stop  offset="0.5" style="stop-color:#A32822"/>
			<stop  offset="0.6585" style="stop-color:#A72822"/>
			<stop  offset="0.7858" style="stop-color:#B22923"/>
			<stop  offset="0.9019" style="stop-color:#C72A24"/>
			<stop  offset="1" style="stop-color:#E42B25"/>
		</linearGradient>
		<line class="st17" x1="93.4" y1="88.9" x2="93.4" y2="88.9"/>
		<linearGradient id="SVGID_15_" gradientUnits="userSpaceOnUse" x1="93.9785" y1="84.3115" x2="93.9785" y2="84.2256">
			<stop  offset="1.075270e-002" style="stop-color:#5F260D"/>
			<stop  offset="1.635857e-002" style="stop-color:#61270D"/>
			<stop  offset="9.833632e-002" style="stop-color:#772A16"/>
			<stop  offset="0.1846" style="stop-color:#8A2B1C"/>
			<stop  offset="0.2759" style="stop-color:#982A1F"/>
			<stop  offset="0.3757" style="stop-color:#A02821"/>
			<stop  offset="0.5" style="stop-color:#A32822"/>
			<stop  offset="0.6585" style="stop-color:#A72822"/>
			<stop  offset="0.7858" style="stop-color:#B22923"/>
			<stop  offset="0.9019" style="stop-color:#C72A24"/>
			<stop  offset="1" style="stop-color:#E42B25"/>
		</linearGradient>
		<path class="st5" d="M94,84.2C94,84.3,94,84.3,94,84.2"/>
		<linearGradient id="SVGID_16_" gradientUnits="userSpaceOnUse" x1="92.4854" y1="74.2002" x2="92.4854" y2="74.1943">
			<stop  offset="1.075270e-002" style="stop-color:#5F260D"/>
			<stop  offset="1.635857e-002" style="stop-color:#61270D"/>
			<stop  offset="9.833632e-002" style="stop-color:#772A16"/>
			<stop  offset="0.1846" style="stop-color:#8A2B1C"/>
			<stop  offset="0.2759" style="stop-color:#982A1F"/>
			<stop  offset="0.3757" style="stop-color:#A02821"/>
			<stop  offset="0.5" style="stop-color:#A32822"/>
			<stop  offset="0.6585" style="stop-color:#A72822"/>
			<stop  offset="0.7858" style="stop-color:#B22923"/>
			<stop  offset="0.9019" style="stop-color:#C72A24"/>
			<stop  offset="1" style="stop-color:#E42B25"/>
		</linearGradient>
		<line class="st15" x1="92.5" y1="74.2" x2="92.5" y2="74.2"/>
		<linearGradient id="SVGID_17_" gradientUnits="userSpaceOnUse" x1="92.7231" y1="75.0371" x2="92.7231" y2="74.9961">
			<stop  offset="1.075270e-002" style="stop-color:#5F260D"/>
			<stop  offset="1.635857e-002" style="stop-color:#61270D"/>
			<stop  offset="9.833632e-002" style="stop-color:#772A16"/>
			<stop  offset="0.1846" style="stop-color:#8A2B1C"/>
			<stop  offset="0.2759" style="stop-color:#982A1F"/>
			<stop  offset="0.3757" style="stop-color:#A02821"/>
			<stop  offset="0.5" style="stop-color:#A32822"/>
			<stop  offset="0.6585" style="stop-color:#A72822"/>
			<stop  offset="0.7858" style="stop-color:#B22923"/>
			<stop  offset="0.9019" style="stop-color:#C72A24"/>
			<stop  offset="1" style="stop-color:#E42B25"/>
		</linearGradient>
		<path class="st3" d="M92.7,75C92.7,75,92.7,75,92.7,75"/>
		<linearGradient id="SVGID_18_" gradientUnits="userSpaceOnUse" x1="92.6064" y1="74.626" x2="92.6064" y2="74.5967">
			<stop  offset="1.075270e-002" style="stop-color:#5F260D"/>
			<stop  offset="1.635857e-002" style="stop-color:#61270D"/>
			<stop  offset="9.833632e-002" style="stop-color:#772A16"/>
			<stop  offset="0.1846" style="stop-color:#8A2B1C"/>
			<stop  offset="0.2759" style="stop-color:#982A1F"/>
			<stop  offset="0.3757" style="stop-color:#A02821"/>
			<stop  offset="0.5" style="stop-color:#A32822"/>
			<stop  offset="0.6585" style="stop-color:#A72822"/>
			<stop  offset="0.7858" style="stop-color:#B22923"/>
			<stop  offset="0.9019" style="stop-color:#C72A24"/>
			<stop  offset="1" style="stop-color:#E42B25"/>
		</linearGradient>
		<path class="st13" d="M92.6,74.6C92.6,74.6,92.6,74.6,92.6,74.6"/>
	</g>
</g>
</svg>
